<svg xmlns="http://www.w3.org/2000/svg" width="194.674" height="182.717" viewBox="0 0 194.674 182.717"><defs><style>.a{fill:#c92489;}.b{fill:#e46b77;}.c{fill:#f5a956;}.d{fill:#153745;}</style></defs><g transform="translate(-57 -63)"><g transform="translate(57 162.055)"><path class="a" d="M36,203.867v-1.729a12.244,12.244,0,0,1,1.844-.868,7.5,7.5,0,0,1,1.889-.453V175.029a14.62,14.62,0,0,1-1.914-.523,11.39,11.39,0,0,1-1.824-.8v-1.735h7.336q1.734,0,3.279-.134t3.554-.135a27.217,27.217,0,0,1,4.236.32,11.915,11.915,0,0,1,3.643,1.141,6.579,6.579,0,0,1,2.552,2.3,6.885,6.885,0,0,1,.957,3.8,6.935,6.935,0,0,1-1.979,4.919,8.206,8.206,0,0,1-2.188,1.6,10.176,10.176,0,0,1-2.711.912v.185a14.866,14.866,0,0,1,2.941.683,8.707,8.707,0,0,1,2.666,1.455,7.5,7.5,0,0,1,1.934,2.393,7.194,7.194,0,0,1,.753,3.394,7.939,7.939,0,0,1-1.091,4.236,8.8,8.8,0,0,1-2.941,2.915,13.54,13.54,0,0,1-4.216,1.664,22.741,22.741,0,0,1-4.919.523c-.638,0-1.336-.015-2.1-.045l-2.278-.089c-.758-.03-1.5-.06-2.208-.09s-1.316-.045-1.8-.045H36Zm11.752-17.678c.518,0,1.032-.019,1.55-.07s1-.1,1.46-.159a6.452,6.452,0,0,0,2.871-2.253,5.836,5.836,0,0,0,1.091-3.484,5.389,5.389,0,0,0-1.505-4.216,5.584,5.584,0,0,0-3.873-1.346c-.668,0-1.246.015-1.729.045s-.927.074-1.321.134v11.344h1.455Zm2.008,14.987a5.945,5.945,0,0,0,4.511-1.709,6.285,6.285,0,0,0,1.64-4.535,6.48,6.48,0,0,0-.548-2.846,4.521,4.521,0,0,0-1.505-1.774,5.933,5.933,0,0,0-2.278-.912,15.672,15.672,0,0,0-2.871-.25H46.3v11.708c.424.09.872.17,1.346.23A18.317,18.317,0,0,0,49.766,201.175Z" transform="translate(-36 -169.607)"/><path class="a" d="M85.514,203.26H72.939v-1.729a14.9,14.9,0,0,1,3.005-1.1v-27.7l-3.464-.365V170.64a10.192,10.192,0,0,1,1.64-.548c.7-.184,1.45-.344,2.253-.479s1.61-.259,2.412-.364,1.525-.189,2.163-.249H82.5v31.434a14.9,14.9,0,0,1,3.005,1.1v1.729Z" transform="translate(-44.186 -169)"/><path class="a" d="M91.3,195.037a13.889,13.889,0,0,1,.842-4.989,10.17,10.17,0,0,1,6.215-6.126,14.558,14.558,0,0,1,5.059-.817,15.2,15.2,0,0,1,5.487.887,10.053,10.053,0,0,1,3.783,2.462,9.493,9.493,0,0,1,2.163,3.783,16.263,16.263,0,0,1,.683,4.8,14.229,14.229,0,0,1-.823,4.989,10.168,10.168,0,0,1-2.392,3.758,10.405,10.405,0,0,1-3.828,2.367,16.416,16.416,0,0,1-10.457-.064,10.3,10.3,0,0,1-3.783-2.463,9.863,9.863,0,0,1-2.233-3.783A15.686,15.686,0,0,1,91.3,195.037Zm7.062,0a26.359,26.359,0,0,0,.249,3.758,8.7,8.7,0,0,0,.887,2.891,4.713,4.713,0,0,0,1.73,1.844,5.417,5.417,0,0,0,2.826.663,3.564,3.564,0,0,0,1.824-.479,3.921,3.921,0,0,0,1.411-1.55,8.908,8.908,0,0,0,.887-2.825,30.306,30.306,0,0,0,.045-8.089,9.139,9.139,0,0,0-.868-2.87,4.674,4.674,0,0,0-1.664-1.844,4.889,4.889,0,0,0-2.642-.658,4.153,4.153,0,0,0-2.048.479,3.841,3.841,0,0,0-1.46,1.55,8.914,8.914,0,0,0-.887,2.826A27.326,27.326,0,0,0,98.365,195.037Z" transform="translate(-48.41 -172.165)"/><path class="a" d="M137.877,201.453a2.827,2.827,0,0,0-.842-2.048,9.863,9.863,0,0,0-2.093-1.6c-.838-.483-1.744-.972-2.731-1.46a15.338,15.338,0,0,1-2.732-1.709,9.02,9.02,0,0,1-2.093-2.3,5.889,5.889,0,0,1-.842-3.235,4.922,4.922,0,0,1,.638-2.482,5.828,5.828,0,0,1,1.73-1.889,8.556,8.556,0,0,1,2.622-1.206,12.063,12.063,0,0,1,3.3-.434,25.377,25.377,0,0,1,4.581.389,17.193,17.193,0,0,1,3.713,1.071,16.515,16.515,0,0,1-.728,3.12c-.364,1.111-.713,2.118-1.047,3.03h-1.55l-1.914-4.645a4.194,4.194,0,0,0-1.141-.294,11.732,11.732,0,0,0-1.321-.07,2.581,2.581,0,0,0-2.781,2.6,2.716,2.716,0,0,0,.842,1.983,10.145,10.145,0,0,0,2.093,1.57c.838.489,1.744.972,2.731,1.456a17.5,17.5,0,0,1,2.732,1.664,8.715,8.715,0,0,1,2.093,2.208,5.405,5.405,0,0,1,.842,3.05,5.73,5.73,0,0,1-2.552,4.944,11.622,11.622,0,0,1-6.833,1.8,23.8,23.8,0,0,1-4.511-.454,16.251,16.251,0,0,1-4.007-1.276,10.364,10.364,0,0,1,.772-3.324,22.78,22.78,0,0,1,1.46-3.005h1.55l2.233,4.964a2.275,2.275,0,0,0,1.116.434,10.684,10.684,0,0,0,1.161.07,4.092,4.092,0,0,0,2.413-.772A2.5,2.5,0,0,0,137.877,201.453Z" transform="translate(-56.214 -172.162)"/><path class="a" d="M164.423,201.453a2.827,2.827,0,0,0-.842-2.048,9.863,9.863,0,0,0-2.093-1.6c-.838-.483-1.744-.972-2.732-1.46a15.359,15.359,0,0,1-2.731-1.709,9.006,9.006,0,0,1-2.093-2.3,5.889,5.889,0,0,1-.842-3.235,4.914,4.914,0,0,1,.638-2.482,5.835,5.835,0,0,1,1.729-1.889,8.569,8.569,0,0,1,2.622-1.206,12.059,12.059,0,0,1,3.3-.434,25.368,25.368,0,0,1,4.58.389,17.2,17.2,0,0,1,3.714,1.071,16.515,16.515,0,0,1-.728,3.12c-.364,1.111-.713,2.118-1.047,3.03h-1.55l-1.914-4.645a4.2,4.2,0,0,0-1.141-.294,11.732,11.732,0,0,0-1.321-.07,2.58,2.58,0,0,0-2.781,2.6,2.716,2.716,0,0,0,.842,1.983,10.145,10.145,0,0,0,2.093,1.57c.837.489,1.744.972,2.731,1.456a17.5,17.5,0,0,1,2.732,1.664,8.715,8.715,0,0,1,2.093,2.208,5.406,5.406,0,0,1,.842,3.05,5.73,5.73,0,0,1-2.552,4.944,11.622,11.622,0,0,1-6.833,1.8,23.793,23.793,0,0,1-4.511-.454,16.257,16.257,0,0,1-4.008-1.276,10.386,10.386,0,0,1,.773-3.324,22.779,22.779,0,0,1,1.46-3.005h1.55l2.233,4.964a2.276,2.276,0,0,0,1.116.434,10.684,10.684,0,0,0,1.161.07,4.092,4.092,0,0,0,2.413-.772A2.5,2.5,0,0,0,164.423,201.453Z" transform="translate(-62.171 -172.162)"/><path class="a" d="M179.718,195.037a13.89,13.89,0,0,1,.842-4.989,10.169,10.169,0,0,1,6.215-6.126,14.553,14.553,0,0,1,5.058-.817,15.2,15.2,0,0,1,5.487.887,10.056,10.056,0,0,1,3.783,2.462,9.5,9.5,0,0,1,2.163,3.783,16.289,16.289,0,0,1,.683,4.8,14.229,14.229,0,0,1-.822,4.989,10.159,10.159,0,0,1-2.393,3.758,10.392,10.392,0,0,1-3.828,2.367,16.415,16.415,0,0,1-10.457-.064,10.3,10.3,0,0,1-3.783-2.463,9.862,9.862,0,0,1-2.233-3.783A15.534,15.534,0,0,1,179.718,195.037Zm7.057,0a26.359,26.359,0,0,0,.249,3.758,8.7,8.7,0,0,0,.887,2.891,4.713,4.713,0,0,0,1.73,1.844,5.419,5.419,0,0,0,2.826.663,3.559,3.559,0,0,0,1.823-.479,3.921,3.921,0,0,0,1.411-1.55,8.908,8.908,0,0,0,.887-2.825,30.306,30.306,0,0,0,.045-8.089,9.159,9.159,0,0,0-.867-2.87,4.676,4.676,0,0,0-1.665-1.844,4.887,4.887,0,0,0-2.642-.658,4.153,4.153,0,0,0-2.048.479,3.834,3.834,0,0,0-1.46,1.55,8.894,8.894,0,0,0-.887,2.826A27.421,27.421,0,0,0,186.775,195.037Z" transform="translate(-68.251 -172.165)"/><path class="a" d="M239.3,206.422H227.91v-1.729c.3-.185.643-.374,1.027-.573a8.2,8.2,0,0,1,1.251-.524v-9.091c0-1.4-.04-2.587-.115-3.564a8.455,8.455,0,0,0-.479-2.4,2.541,2.541,0,0,0-2.642-1.8,3.378,3.378,0,0,0-2.527,1.122,6.785,6.785,0,0,0-1.57,2.946V203.6a7.828,7.828,0,0,1,2.278,1.1v1.729H213.287v-1.729a11.524,11.524,0,0,1,1.411-.593c.518-.185,1.046-.349,1.595-.5V186.835l-3.005-.368v-1.73a11.918,11.918,0,0,1,1.8-.593c.713-.185,1.45-.344,2.208-.479s1.495-.249,2.207-.344,1.316-.164,1.8-.23h1.55v5.148h.044a7.955,7.955,0,0,1,2.572-3.643,6.814,6.814,0,0,1,4.441-1.505,9.947,9.947,0,0,1,2.143.23,5.4,5.4,0,0,1,1.934.842,5.172,5.172,0,0,1,1.526,1.709,8.2,8.2,0,0,1,.912,2.826,8.5,8.5,0,0,1,2.731-4.052,7.158,7.158,0,0,1,4.645-1.55,9.431,9.431,0,0,1,2.985.434,4.654,4.654,0,0,1,2.188,1.53,7.442,7.442,0,0,1,1.346,2.965,20.56,20.56,0,0,1,.454,4.75V203.6a9.485,9.485,0,0,1,3.005,1.1v1.729H241.93v-1.729a9.776,9.776,0,0,1,2.278-1.1v-9.913a15.352,15.352,0,0,0-.663-5.253,2.723,2.723,0,0,0-2.846-1.69,3.053,3.053,0,0,0-2.572,1.231,8.429,8.429,0,0,0-1.391,3.29v12.33a11.577,11.577,0,0,1,1.391.5,12.242,12.242,0,0,1,1.162.593v1.734Z" transform="translate(-75.784 -172.162)"/><g transform="translate(0.005 40.415)"><path class="a" d="M36.006,255.43v-1.7a11.616,11.616,0,0,1,1.819-.852,7.441,7.441,0,0,1,1.859-.449V227.037a14.774,14.774,0,0,1-1.884-.513,10.571,10.571,0,0,1-1.794-.787v-1.7h7.222q1.7,0,3.23-.134t3.5-.135a27.1,27.1,0,0,1,4.172.314,11.749,11.749,0,0,1,3.589,1.122,6.48,6.48,0,0,1,2.512,2.262,7.576,7.576,0,0,1,.424,6.415,6.957,6.957,0,0,1-1.435,2.178,8.144,8.144,0,0,1-2.153,1.57,9.9,9.9,0,0,1-2.667.9v.179a14.619,14.619,0,0,1,2.891.673,8.447,8.447,0,0,1,2.622,1.435,7.4,7.4,0,0,1,1.909,2.352,7.121,7.121,0,0,1,.738,3.344,7.806,7.806,0,0,1-1.077,4.172,8.752,8.752,0,0,1-2.891,2.87,13.31,13.31,0,0,1-4.152,1.64,22.344,22.344,0,0,1-4.844.519q-.942,0-2.063-.045l-2.243-.09c-.748-.029-1.475-.06-2.178-.09s-1.3-.044-1.769-.044H36.006Zm11.573-17.4c.508,0,1.017-.02,1.525-.065s.987-.095,1.435-.16a6.347,6.347,0,0,0,2.826-2.223,5.735,5.735,0,0,0,1.077-3.429A5.31,5.31,0,0,0,52.961,228a5.5,5.5,0,0,0-3.813-1.32q-.987,0-1.7.044t-1.3.135v11.169Zm1.974,14.757a5.849,5.849,0,0,0,4.441-1.685,6.173,6.173,0,0,0,1.615-4.466,6.4,6.4,0,0,0-.538-2.806,4.467,4.467,0,0,0-1.48-1.749,5.8,5.8,0,0,0-2.243-.9,15.177,15.177,0,0,0-2.826-.249H46.143V252.46c.419.09.857.164,1.321.224A15.488,15.488,0,0,0,49.552,252.784Z" transform="translate(-36.006 -221.704)"/><path class="a" d="M74.176,246.735A13.732,13.732,0,0,1,75,241.82a10.042,10.042,0,0,1,6.12-6.031,14.372,14.372,0,0,1,4.979-.807,15.036,15.036,0,0,1,5.408.873,9.938,9.938,0,0,1,3.723,2.422A9.384,9.384,0,0,1,97.366,242a15.947,15.947,0,0,1,.673,4.735,14.057,14.057,0,0,1-.807,4.914,10.008,10.008,0,0,1-2.352,3.7,10.3,10.3,0,0,1-3.768,2.332,16.211,16.211,0,0,1-10.3-.064,10.184,10.184,0,0,1-3.723-2.422,9.7,9.7,0,0,1-2.2-3.724A15.039,15.039,0,0,1,74.176,246.735Zm6.953,0a24.854,24.854,0,0,0,.249,3.7,8.579,8.579,0,0,0,.872,2.846,4.657,4.657,0,0,0,1.7,1.82,5.319,5.319,0,0,0,2.781.648,3.445,3.445,0,0,0,1.794-.474,3.86,3.86,0,0,0,1.39-1.525,8.834,8.834,0,0,0,.872-2.781,25.95,25.95,0,0,0,.294-4.236,25.457,25.457,0,0,0-.249-3.723,8.98,8.98,0,0,0-.852-2.826,4.6,4.6,0,0,0-1.64-1.815,4.8,4.8,0,0,0-2.6-.648,4.051,4.051,0,0,0-2.018.474,3.74,3.74,0,0,0-1.435,1.525,8.709,8.709,0,0,0-.872,2.781A26.005,26.005,0,0,0,81.129,246.735Z" transform="translate(-44.571 -224.221)"/><path class="a" d="M108.53,246.735a13.635,13.635,0,0,1,.832-4.914,10.045,10.045,0,0,1,6.121-6.031,14.37,14.37,0,0,1,4.979-.807,14.99,14.99,0,0,1,5.4.873,9.938,9.938,0,0,1,3.723,2.422A9.384,9.384,0,0,1,131.72,242a15.947,15.947,0,0,1,.673,4.735,14.057,14.057,0,0,1-.807,4.914,10.007,10.007,0,0,1-2.352,3.7,10.3,10.3,0,0,1-3.768,2.332,16.2,16.2,0,0,1-10.292-.064,10.18,10.18,0,0,1-3.723-2.422,9.707,9.707,0,0,1-2.2-3.724A14.9,14.9,0,0,1,108.53,246.735Zm6.953,0a24.8,24.8,0,0,0,.249,3.7,8.594,8.594,0,0,0,.872,2.846,4.66,4.66,0,0,0,1.7,1.82,5.319,5.319,0,0,0,2.781.648,3.444,3.444,0,0,0,1.794-.474,3.859,3.859,0,0,0,1.391-1.525,8.847,8.847,0,0,0,.873-2.781,26.072,26.072,0,0,0,.289-4.236,25.468,25.468,0,0,0-.249-3.723,8.969,8.969,0,0,0-.852-2.826,4.621,4.621,0,0,0-1.635-1.815,4.793,4.793,0,0,0-2.6-.648,4.049,4.049,0,0,0-2.018.474,3.737,3.737,0,0,0-1.436,1.525,8.709,8.709,0,0,0-.873,2.781A26.073,26.073,0,0,0,115.483,246.735Z" transform="translate(-52.281 -224.221)"/><path class="a" d="M152.025,232.407h10.5v1.7c-.568.239-1.1.454-1.595.633a11.134,11.134,0,0,1-1.64.448c-.449.6-.937,1.2-1.456,1.785s-1.046,1.151-1.57,1.689-1.027,1.062-1.505,1.555-.912.942-1.3,1.331c.449.6.972,1.321,1.57,2.163s1.242,1.734,1.929,2.681,1.411,1.909,2.178,2.881,1.53,1.9,2.308,2.771l2.287,1.082v1.7h-7.581l-1.211-1.077q-1.032-1.39-1.82-2.6c-.523-.807-1-1.585-1.41-2.333s-.823-1.475-1.211-2.178-.777-1.4-1.167-2.088l-1.48-.449v7.935a6.293,6.293,0,0,1,1.391.4,13.107,13.107,0,0,1,1.346.678v1.7H138.429v-1.7a15.083,15.083,0,0,1,2.96-1.081V224.787l-3.41-.359v-1.7a11.793,11.793,0,0,1,1.7-.538c.718-.179,1.481-.339,2.288-.473s1.6-.254,2.377-.359,1.436-.184,1.974-.244h1.525v21.038h1.166a27.988,27.988,0,0,0,2.761-3.474q1.279-1.892,2.262-3.474a4.948,4.948,0,0,1-1.056-.454,8.96,8.96,0,0,1-.962-.633v-1.7Z" transform="translate(-58.889 -221.108)"/><path class="a" d="M187.708,255h-12.38v-1.7a9.491,9.491,0,0,1,1.391-.608c.479-.164,1-.324,1.57-.474v-16.5l-2.96-.359v-1.7a15.01,15.01,0,0,1,1.685-.538c.673-.18,1.381-.339,2.133-.474s1.481-.254,2.2-.358,1.346-.185,1.884-.25h1.526v20.186c.6.149,1.136.309,1.615.473a7.878,7.878,0,0,1,1.346.608V255Zm-10.092-29.784a3.057,3.057,0,0,1,1.061-2.466,4.658,4.658,0,0,1,5.5,0,3.056,3.056,0,0,1,1.062,2.466,3.006,3.006,0,0,1-1.062,2.422,4.658,4.658,0,0,1-5.5,0A3.008,3.008,0,0,1,177.616,225.218Z" transform="translate(-67.27 -221.275)"/><path class="a" d="M221.384,257.948H209.5v-1.7c.389-.209.767-.4,1.141-.564s.813-.339,1.326-.518V244.6a9.977,9.977,0,0,0-.807-4.431,2.938,2.938,0,0,0-2.871-1.595,4.255,4.255,0,0,0-2.936,1.1,6.785,6.785,0,0,0-1.864,2.991v12.5a8.2,8.2,0,0,1,1.281.429,8.762,8.762,0,0,1,1.186.653v1.7H194.067v-1.7a14.866,14.866,0,0,1,2.96-1.082v-16.5l-2.96-.359v-1.7a9.353,9.353,0,0,1,1.525-.519c.628-.164,1.306-.319,2.038-.473s1.481-.275,2.243-.379,1.46-.184,2.089-.249h1.525v4.62h.045a8.969,8.969,0,0,1,2.825-3.25,7.579,7.579,0,0,1,4.576-1.37,10.709,10.709,0,0,1,3.14.429,5.113,5.113,0,0,1,2.352,1.5,7.227,7.227,0,0,1,1.48,2.9,17.231,17.231,0,0,1,.519,4.605v10.746a7.827,7.827,0,0,1,2.96,1.077Z" transform="translate(-71.475 -224.221)"/><path class="a" d="M242.035,234.671a16.6,16.6,0,0,1,4.844.6,7.79,7.79,0,0,1,2.916,1.5,11.336,11.336,0,0,1,4.844-3.185,3,3,0,0,1,.627.648,5.081,5.081,0,0,1,.538.921,6.6,6.6,0,0,1,.359.987,3.2,3.2,0,0,1,.135.807l-.583,1.077h-4.71a7.393,7.393,0,0,1,.922,1.64,6.155,6.155,0,0,1,.423,2.4,6.326,6.326,0,0,1-.627,2.781,6.62,6.62,0,0,1-1.91,2.312,9.481,9.481,0,0,1-3.23,1.59,15.969,15.969,0,0,1-4.55.583c-.508,0-.962,0-1.37-.02a6.62,6.62,0,0,1-1.052-.109c-.119.179-.249.4-.383.648a1.581,1.581,0,0,0-.2.743q0,.762,1.077,1.211a16.061,16.061,0,0,0,2.736.807c1.107.24,2.293.509,3.569.807a20.153,20.153,0,0,1,3.569,1.187,8.551,8.551,0,0,1,2.781,1.929,4.465,4.465,0,0,1,1.166,3.074,5.3,5.3,0,0,1-.9,3.185,7.975,7.975,0,0,1-2.577,2.357,13.658,13.658,0,0,1-3.858,1.481,20.859,20.859,0,0,1-4.73.518,23.255,23.255,0,0,1-5.044-.473,11.006,11.006,0,0,1-3.385-1.277,5.516,5.516,0,0,1-1.909-1.839,4.194,4.194,0,0,1-.6-2.153,4.407,4.407,0,0,1,.493-2.153,4.929,4.929,0,0,1,1.391-1.57,8.337,8.337,0,0,1,2.088-1.122,23.982,23.982,0,0,1,2.622-.807,9.562,9.562,0,0,1-1.3-.448,4.958,4.958,0,0,1-1.122-.653,3.288,3.288,0,0,1-.807-.9,2.229,2.229,0,0,1-.313-1.186,2.1,2.1,0,0,1,.358-1.142,4.339,4.339,0,0,1,.942-1.032,9.274,9.274,0,0,1,1.256-.852,10.439,10.439,0,0,1,1.346-.648,8.335,8.335,0,0,1-4.485-2.447,6.618,6.618,0,0,1-1.66-4.64,5.991,5.991,0,0,1,2.781-5.248A13.05,13.05,0,0,1,242.035,234.671Zm5.652,26.376a2.647,2.647,0,0,0-.738-1.954,5.57,5.57,0,0,0-1.909-1.211,17.672,17.672,0,0,0-2.622-.807c-.972-.224-1.939-.483-2.9-.787a6.05,6.05,0,0,0-1.66,1.794,4.408,4.408,0,0,0-.493,2.153,3.9,3.9,0,0,0,1.41,3.21,6.148,6.148,0,0,0,3.967,1.141,5.565,5.565,0,0,0,3.724-1.056A3.166,3.166,0,0,0,247.687,261.046Zm-9.509-19.019a6.549,6.549,0,0,0,.787,3.544q.785,1.211,3.075,1.211a3.4,3.4,0,0,0,3.03-1.231,6.283,6.283,0,0,0,.832-3.524,6.2,6.2,0,0,0-.852-3.608,4.479,4.479,0,0,0-6.056-.026A6.465,6.465,0,0,0,238.178,242.027Z" transform="translate(-79.747 -223.91)"/><path class="a" d="M275.893,253.059a2.8,2.8,0,0,0-.832-2.018,9.537,9.537,0,0,0-2.064-1.57q-1.233-.718-2.691-1.436a15.155,15.155,0,0,1-2.691-1.685,8.987,8.987,0,0,1-2.063-2.263,5.8,5.8,0,0,1-.832-3.185,4.861,4.861,0,0,1,.628-2.447,5.766,5.766,0,0,1,1.7-1.859,8.373,8.373,0,0,1,2.577-1.186,11.874,11.874,0,0,1,3.25-.429,25.033,25.033,0,0,1,4.505.384,17.129,17.129,0,0,1,3.654,1.052,16.47,16.47,0,0,1-.718,3.075q-.537,1.637-1.032,2.985h-1.525l-1.884-4.575a4.132,4.132,0,0,0-1.122-.289,11.35,11.35,0,0,0-1.3-.07,2.575,2.575,0,0,0-2.039.787,2.606,2.606,0,0,0-.693,1.77,2.662,2.662,0,0,0,.832,1.954,10.058,10.058,0,0,0,2.064,1.55q1.233.718,2.691,1.436A17.234,17.234,0,0,1,279,246.68a8.648,8.648,0,0,1,2.063,2.178,5.331,5.331,0,0,1,.832,3.005,5.642,5.642,0,0,1-2.511,4.869,11.463,11.463,0,0,1-6.729,1.77,23.031,23.031,0,0,1-4.44-.449,16.1,16.1,0,0,1-3.947-1.256,10.181,10.181,0,0,1,.762-3.275,22.78,22.78,0,0,1,1.435-2.96h1.526l2.2,4.889a2.3,2.3,0,0,0,1.1.428,10.271,10.271,0,0,0,1.141.065,4.027,4.027,0,0,0,2.378-.762A2.48,2.48,0,0,0,275.893,253.059Z" transform="translate(-87.229 -224.221)"/></g></g><g transform="translate(111 63)"><g transform="translate(45.788 44.517)"><path class="b" d="M90.587,110.618c1.045,2.27,1.973,4.427,3.017,6.7.116.341.58,0,.464-.341-1.044-2.27-1.973-4.427-3.017-6.7C90.936,110.05,90.355,110.278,90.587,110.618Z" transform="translate(-90.533 -110.186)"/></g><g transform="translate(46.277 43.874)"><path class="b" d="M91.2,110.012c2.205,1.362,4.526,2.725,6.847,4.087.348.226.58-.341.348-.455-2.321-1.361-4.526-2.724-6.847-4.086C91.2,109.33,90.848,109.9,91.2,110.012Z" transform="translate(-91.052 -109.505)"/></g><g transform="translate(46.792 42.55)"><path class="b" d="M91.808,108.684c2.321.568,4.642,1.248,6.847,1.816a.291.291,0,1,0,.116-.568c-2.321-.567-4.642-1.248-6.847-1.816C91.576,108,91.46,108.571,91.808,108.684Z" transform="translate(-91.598 -108.101)"/></g><g transform="translate(46.938 39.273)"><path class="b" d="M92.165,107.012c2.553-.568,4.99-1.249,7.543-1.816a.291.291,0,0,0-.116-.568c-2.553.568-4.99,1.249-7.543,1.816C91.584,106.558,91.7,107.125,92.165,107.012Z" transform="translate(-91.753 -104.628)"/></g><g transform="translate(46.484 32.749)"><path class="b" d="M91.79,104.918c1.393-2.27,2.9-4.54,4.294-6.81.232-.341-.348-.568-.464-.227-1.393,2.27-2.9,4.54-4.294,6.811C91.093,104.918,91.673,105.259,91.79,104.918Z" transform="translate(-91.271 -97.712)"/></g><g transform="translate(44.681 30.214)"><path class="b" d="M89.941,103.972c.464-2.838,1.044-5.789,1.509-8.627.116-.34-.464-.454-.58-.113-.464,2.838-1.044,5.789-1.509,8.627C89.36,104.2,89.941,104.312,89.941,103.972Z" transform="translate(-89.36 -95.026)"/></g><g transform="translate(41.184 31.576)"><path class="b" d="M88.106,104.281c-.58-2.5-1.277-5.108-1.857-7.605-.116-.34-.7-.227-.58.114.58,2.5,1.277,5.108,1.857,7.605C87.642,104.734,88.222,104.62,88.106,104.281Z" transform="translate(-85.654 -96.47)"/></g><g transform="translate(37.306 34.886)"><path class="b" d="M86.481,104.933c-1.509-1.589-2.9-3.292-4.41-4.881-.232-.227-.7.114-.464.455,1.509,1.589,2.9,3.177,4.41,4.88C86.365,105.614,86.713,105.16,86.481,104.933Z" transform="translate(-81.543 -99.978)"/></g><g transform="translate(34.992 37.893)"><path class="b" d="M85.646,106.248c-2.089-1.022-4.062-2.043-6.151-3.065-.348-.113-.58.341-.232.455,1.973,1.021,4.062,2.043,6.035,3.064C85.762,106.929,85.994,106.475,85.646,106.248Z" transform="translate(-79.09 -103.165)"/></g><g transform="translate(34.142 42.437)"><path class="b" d="M85.362,108c-2.321.568-4.642,1.248-6.963,1.816-.348.113-.232.681.116.568,2.321-.568,4.642-1.249,6.963-1.816C85.827,108.45,85.711,107.883,85.362,108Z" transform="translate(-78.189 -107.981)"/></g><g transform="translate(36.065 43.411)"><path class="b" d="M86.174,109.076c-1.973,1.362-3.946,2.61-5.8,3.86-.348.226,0,.68.348.454,1.973-1.249,3.946-2.61,5.8-3.86C86.754,109.3,86.406,108.849,86.174,109.076Z" transform="translate(-80.227 -109.014)"/></g><g transform="translate(38.571 44.308)"><path class="b" d="M87.137,110.038l-4.178,4.427c-.232.227.116.681.464.455,1.393-1.476,2.785-2.951,4.062-4.427C87.834,110.152,87.486,109.811,87.137,110.038Z" transform="translate(-82.884 -109.964)"/></g><g transform="translate(42.693 44.857)"><path class="b" d="M88.545,110.752c-.464,1.93-.812,3.973-1.277,5.9a.3.3,0,1,0,.58.113c.464-1.929.812-3.973,1.277-5.9C89.241,110.525,88.661,110.411,88.545,110.752Z" transform="translate(-87.253 -110.546)"/></g><g transform="translate(45.014 44.402)"><path class="b" d="M89.728,110.384c.464,2.157.928,4.313,1.277,6.47.116.341.7.227.58-.113-.464-2.157-.928-4.313-1.277-6.47C90.192,109.93,89.612,110.043,89.728,110.384Z" transform="translate(-89.713 -110.065)"/></g><g transform="translate(50.308 30.588)"><path class="b" d="M97.125,98.092a1.451,1.451,0,0,1-1.741-.908,1.388,1.388,0,0,1,1.044-1.7,1.451,1.451,0,0,1,1.741.908A1.484,1.484,0,0,1,97.125,98.092Z" transform="translate(-95.324 -95.422)"/></g><g transform="translate(53.789 38.007)"><path class="b" d="M100.815,106.028a1.387,1.387,0,0,0,1.044-1.7,1.647,1.647,0,0,0-1.741-1.022,1.387,1.387,0,0,0-1.044,1.7A1.331,1.331,0,0,0,100.815,106.028Z" transform="translate(-99.015 -103.286)"/></g><g transform="translate(52.783 43.452)"><path class="b" d="M99.363,111.235a1.165,1.165,0,0,0,.813-1.362,1.2,1.2,0,0,0-1.393-.794,1.165,1.165,0,0,0-.812,1.362A1.07,1.07,0,0,0,99.363,111.235Z" transform="translate(-97.948 -109.057)"/></g><g transform="translate(52.318 47.197)"><path class="b" d="M98.87,115.205a1.165,1.165,0,0,0,.812-1.362,1.2,1.2,0,0,0-1.393-.794,1.165,1.165,0,0,0-.812,1.362A1.135,1.135,0,0,0,98.87,115.205Z" transform="translate(-97.456 -113.027)"/></g><g transform="translate(48.018 50.482)"><path class="b" d="M94.2,118.468a.977.977,0,0,0,.7-1.249,1,1,0,0,0-1.277-.681.977.977,0,0,0-.7,1.249A1.175,1.175,0,0,0,94.2,118.468Z" transform="translate(-92.897 -116.509)"/></g><g transform="translate(45.355 50.262)"><path class="b" d="M91.49,118.454a1.166,1.166,0,0,0,.812-1.362,1.263,1.263,0,0,0-1.393-.794,1.229,1.229,0,0,0-.812,1.361A1.2,1.2,0,0,0,91.49,118.454Z" transform="translate(-90.075 -116.276)"/></g><g transform="translate(42.106 50.148)"><path class="b" d="M87.813,117.993a.91.91,0,0,0,.7-1.135,1.032,1.032,0,0,0-1.161-.681,1,1,0,0,0-.7,1.135A1.03,1.03,0,0,0,87.813,117.993Z" transform="translate(-86.63 -116.155)"/></g><g transform="translate(37.811 47.878)"><path class="b" d="M83.493,115.927a1.165,1.165,0,0,0,.812-1.362,1.2,1.2,0,0,0-1.393-.794,1.165,1.165,0,0,0-.812,1.362A1.265,1.265,0,0,0,83.493,115.927Z" transform="translate(-82.079 -113.749)"/></g><g transform="translate(35.367 46.765)"><path class="b" d="M80.562,114.045a.675.675,0,0,0,.464-.909c-.116-.454-.464-.567-.928-.567a.744.744,0,0,0-.58.908A.886.886,0,0,0,80.562,114.045Z" transform="translate(-79.488 -112.569)"/></g><g transform="translate(33.742 43.785)"><path class="b" d="M78.724,110.915a.745.745,0,0,0,.58-.909.764.764,0,0,0-.928-.567.744.744,0,0,0-.58.908C77.8,110.8,78.259,111.028,78.724,110.915Z" transform="translate(-77.766 -109.41)"/></g><g transform="translate(34.279 37.273)"><path class="b" d="M79.684,104.508a.906.906,0,0,0,.7-1.248.931.931,0,0,0-1.277-.681.906.906,0,0,0-.7,1.248A1.1,1.1,0,0,0,79.684,104.508Z" transform="translate(-78.335 -102.507)"/></g><g transform="translate(36.76 34.257)"><path class="b" d="M82.154,101.149a1,1,0,0,0,.7-1.135,1.032,1.032,0,0,0-1.161-.681.91.91,0,0,0-.7,1.135A.887.887,0,0,0,82.154,101.149Z" transform="translate(-80.964 -99.311)"/></g><g transform="translate(40.705 31.079)"><path class="b" d="M86.1,97.44a.745.745,0,0,0,.58-.908.871.871,0,0,0-.928-.568.745.745,0,0,0-.58.908A.718.718,0,0,0,86.1,97.44Z" transform="translate(-85.146 -95.942)"/></g><g transform="translate(45.471 29.327)"><path class="b" d="M91.613,96.2a1.165,1.165,0,0,0,.812-1.362,1.044,1.044,0,0,0-1.393-.681,1.165,1.165,0,0,0-.812,1.362A1.044,1.044,0,0,0,91.613,96.2Z" transform="translate(-90.198 -94.086)"/></g><g transform="translate(39.521 37.746)"><path d="M90.211,112.482a4.812,4.812,0,0,0,3.482-5.9,5.014,5.014,0,0,0-6.151-3.4,4.811,4.811,0,0,0-3.482,5.9A5.014,5.014,0,0,0,90.211,112.482Z" transform="translate(-83.891 -103.009)"/></g><g transform="translate(39.521 37.065)"><path class="c" d="M90.211,111.76a4.811,4.811,0,0,0,3.482-5.9,5.014,5.014,0,0,0-6.151-3.4,4.812,4.812,0,0,0-3.482,5.9A5.014,5.014,0,0,0,90.211,111.76Z" transform="translate(-83.891 -102.287)"/></g><path class="a" d="M60.337,108.63a16.194,16.194,0,0,1-9.168-10.1q.522-.341,4.526-2.724c-.58-3.519-.928-5.562-1.044-5.9,0,0,10.677-4.767,20.077,2.157-1.741-6.016-2.2-14.415,5.455-20.318.348.227,1.741,1.249,4.294,3.065,3.25-1.816,4.99-2.838,5.455-3.065,0,0,6.035,6.81,5.919,15.55,1.973-1.249,17.988-10.783,19.962-12.032A43.254,43.254,0,0,0,85.288,63C61.381,63,42,81.5,42,104.43a41.877,41.877,0,0,0,2.437,13.848C47.687,116.348,57.2,110.559,60.337,108.63Z" transform="translate(-42 -63)"/><g transform="translate(3.946 14.642)"><path class="d" d="M99.22,90.212a21.793,21.793,0,0,1,17.988,1.362q-.348.511-2.785,5.108,4.352,3.065,4.874,3.405s-6.383,10.215-17.756,11.01c5.223,3.86,11.373,9.195,8.936,18.5h-5.338c-1.393,3.406-2.206,5.222-2.322,5.562,0,0-13.926-1.476-17.06-15.1-1.161,6.243-4.642,14.416-14.507,16.345-.116-.341-.929-1.816-2.437-4.654-3.714.227-5.8.341-6.267.454,0,0-4.41-11.917,5.455-20.544a30.366,30.366,0,0,1-3.133-.568c-1.741,1.135-16.828,10.33-18.685,11.465a43.265,43.265,0,0,0,39.343,24.517c23.791,0,43.172-18.728,43.172-41.77a40.745,40.745,0,0,0-9.981-26.787C114.771,80.79,103.165,87.941,99.22,90.212Z" transform="translate(-46.183 -78.52)"/></g></g></g></svg>